HIERARCHY
ROOT Hips
{
	OFFSET 0.000000 0.000000 0.000000
	CHANNELS 6 Xposition Yposition Zposition Xrotation Yrotation Zrotation
	JOINT Chest
	{
		OFFSET 0.000000 0.009282 11.569106
		CHANNELS 3 Xrotation Yrotation Zrotation
		JOINT Chest2
		{
			OFFSET 0.000000 -0.016863 9.269641
			CHANNELS 3 Xrotation Yrotation Zrotation
			JOINT Chest3
			{
				OFFSET 0.000000 0.000000 8.374491
				CHANNELS 3 Xrotation Yrotation Zrotation
				JOINT Chest4
				{
					OFFSET 0.000000 0.000000 8.374493
					CHANNELS 3 Xrotation Yrotation Zrotation
					JOINT Neck
					{
						OFFSET 0.000000 -0.000001 12.152554
						CHANNELS 3 Xrotation Yrotation Zrotation
						JOINT Head
						{
							OFFSET 0.000000 -0.040100 7.802319
							CHANNELS 3 Xrotation Yrotation Zrotation
							End Site
							{
								OFFSET 0.000000 -0.020946 14.853096
							}
						}
					}
					JOINT RightCollar
					{
						OFFSET -2.894404 0.000000 6.791374
						CHANNELS 3 Xrotation Yrotation Zrotation
						JOINT RightShoulder
						{
							OFFSET -13.574684 0.000000 0.000000
							CHANNELS 3 Xrotation Yrotation Zrotation
							JOINT RightElbow
							{
								OFFSET -23.923903 0.000000 0.000000
								CHANNELS 3 Xrotation Yrotation Zrotation
								JOINT RightWrist
								{
									OFFSET -19.846718 -0.012765 0.000000
									CHANNELS 3 Xrotation Yrotation Zrotation
									End Site
									{
										OFFSET -14.973145 0.000000 0.000000
									}
								}
							}
						}
					}
					JOINT LeftCollar
					{
						OFFSET 2.894404 0.000000 6.791374
						CHANNELS 3 Xrotation Yrotation Zrotation
						JOINT LeftShoulder
						{
							OFFSET 13.574684 0.000000 0.000000
							CHANNELS 3 Xrotation Yrotation Zrotation
							JOINT LeftElbow
							{
								OFFSET 23.923903 0.000000 0.000000
								CHANNELS 3 Xrotation Yrotation Zrotation
								JOINT LeftWrist
								{
									OFFSET 19.846718 -0.012765 0.000000
									CHANNELS 3 Xrotation Yrotation Zrotation
									End Site
									{
										OFFSET 14.973145 0.000000 0.000000
									}
								}
							}
						}
					}
				}
			}
		}
	}
	JOINT RightHip
	{
		OFFSET -9.469263 -0.004642 0.045487
		CHANNELS 3 Xrotation Yrotation Zrotation
		JOINT RightKnee
		{
			OFFSET 0.000000 -0.002666 -40.478676
			CHANNELS 3 Xrotation Yrotation Zrotation
			JOINT RightAnkle
			{
				OFFSET 0.000000 -0.049110 -35.224068
				CHANNELS 3 Xrotation Yrotation Zrotation
				JOINT RightToe
				{
					OFFSET 0.000000 -12.539530 -6.151390
					CHANNELS 3 Xrotation Yrotation Zrotation
					End Site
					{
						OFFSET 0.000000 -5.044995 -1.291870
					}
				}
			}
		}
	}
	JOINT LeftHip
	{
		OFFSET 9.469263 -0.004642 0.045487
		CHANNELS 3 Xrotation Yrotation Zrotation
		JOINT LeftKnee
		{
			OFFSET 0.000000 -0.002666 -40.478676
			CHANNELS 3 Xrotation Yrotation Zrotation
			JOINT LeftAnkle
			{
				OFFSET 0.000000 -0.049110 -35.224068
				CHANNELS 3 Xrotation Yrotation Zrotation
				JOINT LeftToe
				{
					OFFSET 0.000000 -12.539530 -6.151390
					CHANNELS 3 Xrotation Yrotation Zrotation
					End Site
					{
						OFFSET 0.000000 -5.044995 -1.291870
					}
				}
			}
		}
	}
}
MOTION
Frames: 15
Frame Time: 0.016667
-15.031785 -2.456676 82.408813 3.204430 7.295705 -108.357864 5.375181 0.039921 0.012988 2.318719 0.096878 -0.127493 2.318718 0.096878 -0.127490 1.739018 0.073143 -0.095246 17.202284 -0.525743 -1.378731 -4.237277 -0.482808 -2.695680 -11.418294 -9.909111 -0.797478 20.019645 -39.164329 -5.915194 68.198052 22.259332 70.725618 -61.802892 45.589262 86.410335 -6.299008 7.491214 -2.264754 20.957341 41.081494 10.251050 62.199582 -8.750902 -66.409185 -34.394224 -32.708000 -86.680483 11.433686 -6.197462 -12.028139 1.041757 -1.857308 0.357016 -6.211936 5.047570 0.316265 -0.243961 0.006819 -0.081119 -1.821514 -9.892314 30.926987 -0.462997 5.244226 23.365934 15.321132 -4.906980 9.330813 -0.042629 -0.272243 0.539702 
-15.054023 -2.481524 82.415535 3.189420 7.327393 -108.396093 5.417786 0.030666 0.063610 2.318461 0.080840 -0.124318 2.318461 0.080840 -0.124319 1.738830 0.061103 -0.092931 17.179608 -0.490119 -1.373882 -4.278673 -0.419077 -2.674639 -11.444320 -9.911707 -0.801461 20.014029 -39.116989 -5.982123 68.206091 22.308369 70.781530 -61.831312 45.586370 86.428387 -6.315694 7.494831 -2.251523 21.027846 41.090882 10.177235 62.222702 -8.745604 -66.354577 -34.398919 -32.754439 -86.725623 11.447036 -6.137575 -11.973801 1.084270 -1.862352 0.357618 -6.245569 5.045821 0.296785 -0.231301 0.000285 -0.074851 -1.750663 -9.829473 30.694068 -0.528052 5.208956 23.549825 15.332557 -4.852675 9.348670 -0.038826 -0.278283 0.547051 
-15.076816 -2.499269 82.422134 3.194668 7.335845 -108.429943 5.456046 -0.000358 0.117571 2.320453 0.063143 -0.120110 2.320453 0.063143 -0.120109 1.740328 0.047814 -0.089841 17.155598 -0.460249 -1.365976 -4.322725 -0.366870 -2.649971 -11.510422 -9.931186 -0.791137 20.033380 -39.066640 -6.075687 68.198974 22.334480 70.843262 -61.854651 45.588378 86.447587 -6.338310 7.497006 -2.236668 21.060994 41.107190 10.125016 62.258697 -8.753519 -66.286303 -34.387093 -32.775281 -86.735534 11.454015 -6.111097 -11.949002 1.107995 -1.865725 0.385562 -6.241803 5.044724 0.279151 -0.246362 -0.003512 -0.071164 -1.706384 -9.805829 30.425385 -0.570585 5.185271 23.763008 15.323471 -4.790037 9.370049 -0.029743 -0.295053 0.582644 
-15.090597 -2.511783 82.428017 3.210268 7.315217 -108.438207 5.481139 -0.045436 0.159657 2.325646 0.045227 -0.114931 2.325646 0.045226 -0.114932 1.744228 0.034358 -0.086024 17.131096 -0.444980 -1.355759 -4.368034 -0.342085 -2.626141 -11.553128 -9.953691 -0.771382 20.029593 -39.035405 -6.178901 68.165165 22.368595 70.902841 -61.882053 45.593705 86.473979 -6.367493 7.498663 -2.222700 21.099409 41.122698 10.061849 62.298060 -8.742843 -66.203856 -34.398772 -32.802072 -86.790804 11.434581 -6.114166 -11.944552 1.124324 -1.868174 0.381302 -6.224265 5.042740 0.289886 -0.271843 -0.004740 -0.071818 -1.701521 -9.835873 30.131943 -0.578721 5.197783 23.993495 15.315612 -4.743747 9.350160 -0.034449 -0.307789 0.615514 
-15.104048 -2.518941 82.434464 3.226486 7.298372 -108.448644 5.513371 -0.083991 0.207480 2.332942 0.028212 -0.108311 2.332942 0.028212 -0.108306 1.749702 0.021573 -0.081126 17.110918 -0.446739 -1.341646 -4.405693 -0.349781 -2.601101 -11.557699 -9.955041 -0.771889 20.023512 -39.033739 -6.239692 68.110004 22.418349 70.957264 -61.905597 45.588063 86.498089 -6.393233 7.505089 -2.213768 21.169847 41.139602 9.978356 62.306502 -8.729056 -66.127521 -34.460835 -32.857144 -86.909212 11.419391 -6.121767 -11.926062 1.138900 -1.867644 0.367797 -6.202299 5.042900 0.298701 -0.301226 -0.005335 -0.072906 -1.703711 -9.862264 29.922191 -0.580684 5.215013 24.171445 15.310330 -4.705157 9.445465 -0.046700 -0.328241 0.645906 
-15.104484 -2.544446 82.441200 3.200731 7.268052 -108.423038 5.525975 -0.089310 0.222567 2.338778 0.013943 -0.102870 2.338778 0.013943 -0.102866 1.754082 0.010851 -0.077097 17.096464 -0.464725 -1.321414 -4.433115 -0.389303 -2.570484 -11.541923 -9.953674 -0.772697 19.993888 -39.036478 -6.293307 68.060404 22.484971 71.003744 -61.913725 45.580205 86.508396 -6.412479 7.518198 -2.204339 21.263451 41.148294 9.898208 62.290977 -8.744349 -66.070066 -34.562796 -32.900717 -87.036008 11.365417 -6.090358 -11.922584 1.158745 -1.870798 0.348022 -6.214028 5.042649 0.286866 -0.290497 -0.008819 -0.068848 -1.740500 -9.838561 29.812826 -0.579098 5.214148 24.246717 15.323801 -4.708048 9.389625 -0.062916 -0.315381 0.609381 
-15.106409 -2.560596 82.448318 3.201235 7.245370 -108.415531 5.556140 -0.114858 0.258991 2.343602 0.002267 -0.099434 2.343603 0.002267 -0.099437 1.757702 0.002082 -0.074572 17.086960 -0.497816 -1.299271 -4.451663 -0.457125 -2.541627 -11.540482 -9.960622 -0.765974 19.958325 -39.032684 -6.355068 68.028916 22.549835 71.045852 -61.916703 45.578546 86.513867 -6.425133 7.533401 -2.208778 21.314406 41.164211 9.876379 62.290082 -8.770064 -66.016586 -34.649618 -32.942566 -87.096749 11.330189 -6.083296 -11.888394 1.172235 -1.874837 0.328684 -6.189560 5.045486 0.270765 -0.310678 -0.008470 -0.068050 -1.766108 -9.848200 29.821255 -0.558746 5.229858 24.234266 15.332916 -4.680102 9.344818 -0.084954 -0.340234 0.633674 
-15.101370 -2.584210 82.453835 3.192607 7.224432 -108.392828 5.579291 -0.131793 0.275903 2.349972 -0.008172 -0.098334 2.349973 -0.008172 -0.098342 1.762481 -0.005751 -0.073782 17.079576 -0.539301 -1.274664 -4.466449 -0.541149 -2.511186 -11.597382 -9.972369 -0.778709 19.982437 -39.012073 -6.392209 68.019914 22.599918 71.082926 -61.911498 45.583532 86.517043 -6.449807 7.545272 -2.203591 21.324190 41.184060 9.896132 62.338460 -8.742182 -65.938749 -34.776386 -33.035774 -87.323026 11.285667 -6.061751 -11.859234 1.192755 -1.888012 0.314588 -6.173697 5.049532 0.240816 -0.319931 -0.006219 -0.066894 -1.786470 -9.852646 29.881384 -0.536302 5.247362 24.176023 15.341935 -4.660281 9.212097 -0.101253 -0.355505 0.639561 
-15.103236 -2.602323 82.457680 3.195713 7.214906 -108.366689 5.615018 -0.155479 0.295272 2.357549 -0.019034 -0.100571 2.357549 -0.019033 -0.100572 1.768166 -0.013887 -0.075504 17.069845 -0.584645 -1.252183 -4.485622 -0.631431 -2.485987 -11.673087 -9.991850 -0.780724 20.007231 -38.975665 -6.444122 68.015044 22.633625 71.124945 -61.878324 45.581722 86.493581 -6.467524 7.542921 -2.190639 21.340182 41.212146 9.894142 62.394140 -8.781795 -65.874033 -34.960504 -33.136912 -87.524728 11.267347 -6.053958 -11.817815 1.199426 -1.896155 0.299160 -6.155495 5.050819 0.200836 -0.329652 -0.003039 -0.066763 -1.813059 -9.838378 29.965331 -0.526488 5.238365 24.112972 15.352520 -4.628403 9.275989 -0.114241 -0.388954 0.659694 
-15.085201 -2.638031 82.459755 3.177256 7.183400 -108.282520 5.619674 -0.172170 0.266927 2.368970 -0.030102 -0.104721 2.368970 -0.030102 -0.104722 1.776732 -0.022171 -0.078660 17.055698 -0.629984 -1.233122 -4.512987 -0.720439 -2.467073 -11.711559 -9.997838 -0.769660 20.004388 -38.957077 -6.487308 67.988031 22.678726 71.161835 -61.854992 45.581592 86.479341 -6.457482 7.542368 -2.197885 21.350744 41.243329 9.890266 62.408408 -8.844174 -65.832553 -35.079008 -33.195792 -87.623725 11.209846 -6.036063 -11.845379 1.197471 -1.908079 0.279663 -6.137369 5.048421 0.176234 -0.324369 -0.001177 -0.063713 -1.868311 -9.818388 29.998679 -0.527834 5.243877 24.059862 15.385078 -4.643615 9.113031 -0.128620 -0.388504 0.626351 
-15.073031 -2.662796 82.461708 3.186667 7.161121 -108.229094 5.653044 -0.205626 0.272624 2.380381 -0.042658 -0.107102 2.380381 -0.042658 -0.107101 1.785293 -0.031577 -0.080494 17.034227 -0.669966 -1.220324 -4.553799 -0.797380 -2.457777 -11.726624 -10.000174 -0.777008 20.003867 -38.940322 -6.504332 67.937242 22.749919 71.204346 -61.832487 45.577398 86.465318 -6.460449 7.546078 -2.208217 21.412105 41.266282 9.854436 62.364504 -8.872027 -65.822533 -35.090995 -33.241445 -87.649400 11.175573 -6.045419 -11.835897 1.192163 -1.912184 0.245657 -6.107563 5.046258 0.158322 -0.332443 0.000157 -0.062449 -1.915149 -9.819520 30.063945 -0.524815 5.252016 24.000986 15.410085 -4.643496 9.035154 -0.140707 -0.409040 0.637164 
-15.055372 -2.692693 82.462219 3.184999 7.136677 -108.169508 5.683993 -0.232206 0.273126 2.393147 -0.055488 -0.107174 2.393147 -0.055488 -0.107166 1.794871 -0.041197 -0.080593 17.010250 -0.701362 -1.214584 -4.599024 -0.856175 -2.458401 -11.733637 -10.004215 -0.784389 19.997752 -38.914709 -6.523056 67.881029 22.825580 71.255047 -61.827043 45.575578 86.462081 -6.461960 7.548527 -2.219220 21.445443 41.293172 9.820968 62.311037 -8.897021 -65.824650 -35.013080 -33.242630 -87.570764 11.127199 -6.042667 -11.827246 1.196254 -1.918141 0.211568 -6.088849 5.045441 0.134592 -0.329760 0.000420 -0.059929 -1.972473 -9.808263 30.101815 -0.514005 5.248010 23.949777 15.422369 -4.636146 9.070291 -0.144032 -0.418446 0.631192 
-15.040167 -2.718111 82.462120 3.189765 7.114445 -108.130125 5.719717 -0.261871 0.287862 2.404091 -0.067618 -0.104553 2.404093 -0.067618 -0.104558 1.803081 -0.050303 -0.078686 16.988169 -0.726042 -1.212749 -4.640563 -0.901399 -2.463813 -11.775497 -10.022809 -0.791051 20.023784 -38.870490 -6.549537 67.828286 22.872910 71.314811 -61.846106 45.573628 86.481069 -6.464398 7.545628 -2.225561 21.424138 41.316876 9.818607 62.281633 -8.929950 -65.837717 -34.871681 -33.212184 -87.420759 11.083014 -6.040834 -11.806405 1.206864 -1.928240 0.196680 -6.072519 5.048787 0.104462 -0.327577 0.001411 -0.058268 -2.028700 -9.805078 30.077093 -0.496399 5.240295 23.946843 15.427225 -4.618392 9.121250 -0.143897 -0.424954 0.638044 
-15.023059 -2.747010 82.460121 3.181727 7.084076 -108.079151 5.740015 -0.281485 0.285673 2.413910 -0.079491 -0.099962 2.413910 -0.079491 -0.099959 1.810446 -0.059225 -0.075287 16.969602 -0.744898 -1.213828 -4.675454 -0.935061 -2.472496 -11.845833 -10.053718 -0.790952 20.064727 -38.807209 -6.592193 67.792865 22.894912 71.382751 -61.867225 45.575919 86.499858 -6.481438 7.542643 -2.221463 21.376464 41.333361 9.843237 62.275916 -8.968761 -65.846370 -34.699632 -33.199832 -87.269149 11.025956 -6.028650 -11.802888 1.221705 -1.941054 0.181566 -6.095452 5.051188 0.075368 -0.290460 0.001981 -0.053822 -2.091814 -9.788913 29.979975 -0.491489 5.229790 23.987831 15.423749 -4.623461 9.180069 -0.128279 -0.405657 0.606640 
-15.010901 -2.771960 82.457718 3.190108 7.065252 -108.060799 5.774134 -0.305448 0.305793 2.426191 -0.091629 -0.092420 2.426191 -0.091629 -0.092419 1.819657 -0.068356 -0.069681 16.949695 -0.757800 -1.218091 -4.712673 -0.956730 -2.484922 -11.932573 -10.085236 -0.792163 20.107802 -38.742588 -6.636454 67.767826 22.909597 71.448191 -61.880489 45.579246 86.513000 -6.510154 7.543864 -2.217174 21.329132 41.350652 9.880154 62.267194 -9.029179 -65.843188 -34.549385 -33.157457 -87.118674 10.984575 -6.021861 -11.774189 1.242737 -1.955752 0.170030 -6.093193 5.052653 0.053523 -0.281023 0.004694 -0.052177 -2.129603 -9.774697 29.896028 -0.508789 5.214840 24.045490 15.427587 -4.621917 9.270858 -0.115702 -0.399055 0.604411 
